<svg width="38" height="51" viewBox="0 0 38 51" fill="none" xmlns="http://www.w3.org/2000/svg">
  <path d="M33.6113 23.5368C34.4235 24.3019 35.162 24.9772 35.7417 25.5C35.162 26.0228 34.4235 26.6981 33.6113 27.4632C31.7242 29.241 29.3901 31.5494 27.7384 33.5648C25.2786 36.5664 22.7952 40.7937 20.9506 44.2083C20.2768 45.4557 19.6819 46.6067 19.1971 47.5673C18.7153 46.6019 18.1229 45.4451 17.4502 44.1923C15.6128 40.7703 13.1258 36.5353 10.6276 33.5525C8.91435 31.5069 6.47937 29.195 4.5109 27.4226C3.68093 26.6753 2.92407 26.0152 2.32428 25.5C2.92407 24.9848 3.68093 24.3247 4.5109 23.5774C6.47937 21.805 8.91435 19.4931 10.6276 17.4475C13.1258 14.4647 15.6128 10.2297 17.4502 6.80768C18.1229 5.55494 18.7153 4.39815 19.1971 3.43274C19.6819 4.39334 20.2768 5.54432 20.9506 6.79167C22.7952 10.2064 25.2786 14.4336 27.7384 17.4352C29.3901 19.4506 31.7242 21.759 33.6113 23.5368Z" fill="#FFBA00" stroke="#1A1A1A" stroke-width="3"></path>
  </svg>