<svg width="55" height="51" viewBox="0 0 55 51" fill="none" xmlns="http://www.w3.org/2000/svg">
  <path d="M47.643 24.3835C48.6343 24.8034 49.5765 25.177 50.4282 25.5C49.5765 25.823 48.6343 26.1966 47.643 26.6165C43.8788 28.2112 39.22 30.5504 36.1898 33.4279C33.2808 36.1903 30.755 40.5107 28.9896 44.0125C28.4177 45.1469 27.9169 46.2134 27.5 47.1397C27.0831 46.2134 26.5823 45.1469 26.0104 44.0125C24.245 40.5107 21.7192 36.1903 18.8102 33.4279C15.78 30.5504 11.1212 28.2112 7.35703 26.6165C6.36566 26.1966 5.42345 25.823 4.57178 25.5C5.42345 25.177 6.36566 24.8034 7.35703 24.3835C11.1212 22.7888 15.78 20.4496 18.8102 17.5721C21.7192 14.8097 24.245 10.4893 26.0104 6.98747C26.5823 5.85311 27.0831 4.78657 27.5 3.86033C27.9169 4.78657 28.4177 5.85311 28.9896 6.98747C30.755 10.4893 33.2808 14.8097 36.1898 17.5721C39.22 20.4496 43.8788 22.7888 47.643 24.3835Z" fill="#FFE3E2" stroke="#1A1A1A" stroke-width="3"></path>
</svg>
